/* XPM */
static char * icon_xpm[] = {
"32 32 3 1",
" 	c None",
".	c #F21C24",
"+	c #000000",
"                                ",
"                                ",
"                                ",
"                                ",
"                                ",
"                                ",
"                                ",
"                                ",
"                            ... ",
"   .........                ... ",
"  ...........              .... ",
"  ....   ....              ...  ",
"  ...     ...  +++   ++++  ...  ",
"  ...     ...  ++++ ++++   ...  ",
"  ...     ...   +++++++    ...  ",
" ....    ...    +++++     ...   ",
" ...........     +++      ...   ",
" .........      +++++     ...   ",
" ...           ++++++     ...   ",
"....          +++ ++++    ...   ",
"....         +++   +++   ...    ",
"...         +++    ++++  ...    ",
"                                ",
"                                ",
"                                ",
"                                ",
"                                ",
"                                ",
"                                ",
"                                ",
"                                ",
"                                "};
